<?xml version="1.0" encoding="UTF-8"?>
<svg version="1.1" xmlns="http://www.w3.org/2000/svg" width="480" height="480">
<path d="M0 0 C158.4 0 316.8 0 480 0 C480 158.4 480 316.8 480 480 C321.6 480 163.2 480 0 480 C0 321.6 0 163.2 0 0 Z " fill="#FEFEFE" transform="translate(0,0)"/>
<path d="M0 0 C1.23169922 1.07507813 1.23169922 1.07507813 2.48828125 2.171875 C15.28293479 14.05401152 23.40572082 31.05848612 24.2578125 48.515625 C24.94094591 70.24053626 19.16038507 88.83918343 4 105 C-8.48675286 117.82668261 -25.84880651 125.957422 -43.83886719 126.2421875 C-62.7700804 126.29910208 -80.58444501 121.98616452 -95 109 C-95.79664063 108.29488281 -96.59328125 107.58976562 -97.4140625 106.86328125 C-111.11935294 94.00680789 -119.08953576 76.61349309 -120.18359375 57.8515625 C-120.60645108 36.90768792 -113.28576081 17.83777654 -98.80078125 2.60546875 C-71.36464597 -22.91740745 -28.41168048 -25.46183387 0 0 Z " fill="#FDFDFD" transform="translate(288,186)"/>
<path d="M0 0 C1.23169922 1.07507813 1.23169922 1.07507813 2.48828125 2.171875 C15.28293479 14.05401152 23.40572082 31.05848612 24.2578125 48.515625 C24.94094591 70.24053626 19.16038507 88.83918343 4 105 C-8.48675286 117.82668261 -25.84880651 125.957422 -43.83886719 126.2421875 C-62.7700804 126.29910208 -80.58444501 121.98616452 -95 109 C-95.79664063 108.29488281 -96.59328125 107.58976562 -97.4140625 106.86328125 C-111.11935294 94.00680789 -119.08953576 76.61349309 -120.18359375 57.8515625 C-120.60645108 36.90768792 -113.28576081 17.83777654 -98.80078125 2.60546875 C-71.36464597 -22.91740745 -28.41168048 -25.46183387 0 0 Z M-91 21 C-100.11810157 33.06746472 -103.60810267 47.16638002 -102 62 C-99.16839432 76.22130453 -91.93788869 89.17897969 -80.328125 98.0390625 C-66.61501812 107.14239616 -52.06635081 110.40007686 -35.75927734 107.61767578 C-22.21449174 104.40403976 -10.04970188 95.96002617 -2.24609375 84.40234375 C-0.66792985 81.65341164 0.6992904 78.89002649 2 76 C2.41378906 75.10925781 2.82757813 74.21851563 3.25390625 73.30078125 C8.04896967 61.32147647 7.62317473 46.89837363 3.2578125 34.85546875 C-3.00183474 20.64490312 -13.18387514 9.30936172 -27.765625 3.390625 C-51.16063849 -5.20464442 -74.92350095 1.96618018 -91 21 Z " fill="#040404" transform="translate(288,186)"/>
<path d="M0 0 C0 0.99 0 1.98 0 3 C-2.05938485 3.51484621 -4.10539426 4.02107885 -6.1875 4.4375 C-7.0846875 4.7159375 -7.0846875 4.7159375 -8 5 C-8.33 5.66 -8.66 6.32 -9 7 C-9 6.01 -9 5.02 -9 4 C-2.25 0 -2.25 0 0 0 Z " fill="#EDEDED" transform="translate(280,301)"/>
</svg>
